<svg width="128" height="40" viewBox="0 0 128 40" fill="none" xmlns="http://www.w3.org/2000/svg">
<mask id="mask0_106_3409" style="mask-type:luminance" maskUnits="userSpaceOnUse" x="0" y="0" width="40" height="40">
<path d="M0 0H40V40H0V0Z" fill="white"/>
</mask>
<g mask="url(#mask0_106_3409)">
<mask id="mask1_106_3409" style="mask-type:luminance" maskUnits="userSpaceOnUse" x="-10" y="-6" width="57" height="56">
<path d="M17.9735 -5.89874L46.0973 22.0136L18.6175 49.2881L-9.50635 21.3757L17.9735 -5.89874Z" fill="white"/>
</mask>
<g mask="url(#mask1_106_3409)">
<mask id="mask2_106_3409" style="mask-type:luminance" maskUnits="userSpaceOnUse" x="-10" y="-6" width="57" height="56">
<path d="M17.9747 -5.89874L46.0985 22.0136L18.6175 49.2869L-9.50635 21.3757L17.9747 -5.89874Z" fill="white"/>
</mask>
<g mask="url(#mask2_106_3409)">
<mask id="mask3_106_3409" style="mask-type:luminance" maskUnits="userSpaceOnUse" x="-10" y="-6" width="57" height="56">
<path d="M17.9747 -5.89874L46.0985 22.0136L18.6175 49.2869L-9.50635 21.3757L17.9747 -5.89874Z" fill="white"/>
</mask>
<g mask="url(#mask3_106_3409)">
<path d="M25.2663 2.36606C26.6027 3.69242 27.4266 5.52513 27.4254 7.5505C27.4195 11.6024 24.1063 14.8919 20.0225 14.8978C18.6553 14.9001 17.3686 15.4311 16.4003 16.391C15.4321 17.352 14.897 18.629 14.8958 19.9871C14.8911 22.7913 17.1863 25.0669 20.0083 25.0634C21.3767 25.0611 22.6634 24.5312 23.6316 23.5702C24.5999 22.6092 25.1349 21.3322 25.1361 19.9741C25.142 15.9222 28.4564 12.6327 32.5391 12.628C36.6217 12.6222 39.9278 15.9034 39.9219 19.9565C39.9148 25.2349 37.8374 30.1985 34.0732 33.9344C30.3089 37.6715 25.3054 39.7321 19.9882 39.7392C9.01515 39.7521 0.09588 30.9011 0.108901 20.0082C0.116003 14.7298 2.19223 9.76503 5.95762 6.02795C9.72183 2.29205 14.723 0.231425 20.0402 0.224377C22.081 0.220852 23.9299 1.0397 25.2663 2.36606Z" fill="#0101B9"/>
</g>
</g>
</g>
</g>
<mask id="mask4_106_3409" style="mask-type:luminance" maskUnits="userSpaceOnUse" x="5" y="0" width="35" height="35">
<path d="M5.15137 0H39.9999V34.8872H5.15137V0Z" fill="white"/>
</mask>
<g mask="url(#mask4_106_3409)">
<mask id="mask5_106_3409" style="mask-type:luminance" maskUnits="userSpaceOnUse" x="-10" y="-6" width="57" height="56">
<path d="M17.9735 -5.89874L46.0973 22.0136L18.6175 49.2881L-9.50635 21.3757L17.9735 -5.89874Z" fill="white"/>
</mask>
<g mask="url(#mask5_106_3409)">
<mask id="mask6_106_3409" style="mask-type:luminance" maskUnits="userSpaceOnUse" x="-10" y="-6" width="57" height="56">
<path d="M17.9747 -5.89874L46.0985 22.0136L18.6175 49.2869L-9.50635 21.3757L17.9747 -5.89874Z" fill="white"/>
</mask>
<g mask="url(#mask6_106_3409)">
<mask id="mask7_106_3409" style="mask-type:luminance" maskUnits="userSpaceOnUse" x="-8" y="-6" width="56" height="56">
<path d="M19.4811 -6L47.6049 21.9124L20.1238 49.1856L-8 21.2744L19.4811 -6Z" fill="white"/>
</mask>
<g mask="url(#mask7_106_3409)">
<path d="M30.9777 14.187C29.3347 14.1882 27.8219 14.7286 26.5944 15.6285C27.9426 13.8169 30.1017 12.6339 32.5437 12.6316C36.6264 12.6257 39.9325 15.9069 39.9266 19.96C39.9194 25.2385 37.842 30.202 34.0778 33.9379C33.8162 34.1988 33.5452 34.449 33.2717 34.6934C36.553 31.062 38.3534 26.425 38.3605 21.5155C38.3652 17.4624 35.0591 14.1811 30.9777 14.187ZM18.4789 1.78452C20.5208 1.781 22.3674 2.59984 23.7038 3.9262C25.039 5.25139 25.8652 7.08527 25.8629 9.11065C25.8605 10.7401 25.3172 12.2427 24.4093 13.461C26.2346 12.1229 27.4254 9.97883 27.4289 7.55637C27.4313 5.531 26.6074 3.69711 25.271 2.37075C23.9346 1.04439 22.0868 0.22672 20.0449 0.22907C14.7277 0.236119 9.7265 2.29674 5.9623 6.03264C5.69951 6.29345 5.44738 6.56131 5.20117 6.83269C8.86003 3.57728 13.5321 1.79039 18.4789 1.78452Z" fill="#000056"/>
</g>
</g>
</g>
</g>
<path d="M61.408 29.86C56.56 29.86 52.768 25.924 52.768 20.86C52.768 15.82 56.56 11.908 61.408 11.908C65.944 11.908 69.496 14.932 70.096 19.348H66.232C65.824 16.876 63.904 15.172 61.456 15.172C58.504 15.172 56.512 17.5 56.512 20.86C56.512 24.244 58.504 26.596 61.456 26.596C63.904 26.596 65.8 24.868 66.232 22.396H70.096C69.496 26.86 65.944 29.86 61.408 29.86ZM74.7552 29.5H71.3952V12.268H74.7552V29.5ZM84.4188 29.5V27.916C83.5788 29.116 82.3068 29.74 80.5548 29.74C77.8907 29.74 76.1147 28.18 76.1147 25.78C76.1147 23.284 78.1308 21.94 81.8748 21.94C82.5948 21.94 83.2188 21.988 84.0108 22.084V21.316C84.0108 19.876 83.1948 19.036 81.8028 19.036C80.3628 19.036 79.4988 19.876 79.3787 21.316H76.3787C76.5707 18.364 78.7068 16.444 81.8028 16.444C85.1628 16.444 87.1308 18.292 87.1308 21.436V29.5H84.4188ZM79.2588 25.684C79.2588 26.764 80.0268 27.436 81.2748 27.436C82.9788 27.436 84.0108 26.5 84.0108 25.012V24.1C83.2188 23.98 82.6668 23.932 82.0908 23.932C80.1948 23.932 79.2588 24.532 79.2588 25.684ZM92.3815 23.284V29.5H89.0455V16.684H92.1175V19.156C93.0535 17.524 95.0455 16.54 97.1095 16.54V19.996C94.2775 19.78 92.3815 20.452 92.3815 23.284ZM101.746 13.708C101.746 14.836 100.834 15.676 99.5144 15.676C98.2184 15.676 97.3064 14.836 97.3064 13.708C97.3064 12.532 98.2184 11.692 99.5144 11.692C100.834 11.692 101.746 12.532 101.746 13.708ZM101.218 29.5H97.8824V16.684H101.218V29.5ZM114.771 16.684L110.067 29.5H106.419L101.691 16.684H105.291L108.339 25.708L111.411 16.684H114.771ZM120.494 29.74C116.774 29.74 113.99 26.812 113.99 23.092C113.99 19.348 116.774 16.444 120.494 16.444C124.214 16.444 126.998 19.348 126.998 23.092C126.998 26.812 124.214 29.74 120.494 29.74ZM120.494 26.788C122.15 26.788 123.566 25.468 123.566 23.092C123.566 20.716 122.15 19.42 120.494 19.42C118.838 19.42 117.422 20.716 117.422 23.092C117.422 25.468 118.838 26.788 120.494 26.788Z" fill="url(#paint0_linear_106_3409)"/>
<defs>
<linearGradient id="paint0_linear_106_3409" x1="52" y1="23.0139" x2="128" y2="23.3855" gradientUnits="userSpaceOnUse">
<stop stop-color="#0000FF"/>
<stop offset="1" stop-color="#000099"/>
</linearGradient>
</defs>
</svg>
