<svg width="40" height="40" viewBox="0 0 40 40" fill="none" xmlns="http://www.w3.org/2000/svg">
<mask id="mask0_114_3696" style="mask-type:luminance" maskUnits="userSpaceOnUse" x="0" y="0" width="40" height="40">
<path d="M0 0H40V40H0V0Z" fill="white"/>
</mask>
<g mask="url(#mask0_114_3696)">
<mask id="mask1_114_3696" style="mask-type:luminance" maskUnits="userSpaceOnUse" x="-10" y="-6" width="57" height="56">
<path d="M17.9735 -5.89868L46.0973 22.0137L18.6175 49.2881L-9.50635 21.3758L17.9735 -5.89868Z" fill="white"/>
</mask>
<g mask="url(#mask1_114_3696)">
<mask id="mask2_114_3696" style="mask-type:luminance" maskUnits="userSpaceOnUse" x="-10" y="-6" width="57" height="56">
<path d="M17.9747 -5.89868L46.0985 22.0137L18.6175 49.2869L-9.50635 21.3758L17.9747 -5.89868Z" fill="white"/>
</mask>
<g mask="url(#mask2_114_3696)">
<mask id="mask3_114_3696" style="mask-type:luminance" maskUnits="userSpaceOnUse" x="-10" y="-6" width="57" height="56">
<path d="M17.9747 -5.89868L46.0985 22.0137L18.6175 49.2869L-9.50635 21.3758L17.9747 -5.89868Z" fill="white"/>
</mask>
<g mask="url(#mask3_114_3696)">
<path d="M25.2663 2.36606C26.6027 3.69242 27.4266 5.52513 27.4254 7.5505C27.4195 11.6024 24.1063 14.8919 20.0225 14.8978C18.6553 14.9001 17.3686 15.4311 16.4003 16.391C15.4321 17.352 14.897 18.629 14.8958 19.9871C14.8911 22.7913 17.1863 25.0669 20.0083 25.0634C21.3767 25.0611 22.6634 24.5312 23.6316 23.5702C24.5999 22.6092 25.1349 21.3322 25.1361 19.9741C25.142 15.9222 28.4564 12.6327 32.5391 12.628C36.6217 12.6222 39.9278 15.9034 39.9219 19.9565C39.9148 25.2349 37.8374 30.1985 34.0732 33.9344C30.3089 37.6715 25.3054 39.7321 19.9882 39.7392C9.01515 39.7521 0.09588 30.9011 0.108901 20.0082C0.116003 14.7298 2.19223 9.76503 5.95762 6.02795C9.72183 2.29205 14.723 0.231425 20.0402 0.224377C22.081 0.220852 23.9299 1.0397 25.2663 2.36606Z" fill="#0101B9"/>
</g>
</g>
</g>
</g>
</svg>
