<svg width="28" height="28" viewBox="0 0 28 28" fill="none" xmlns="http://www.w3.org/2000/svg">
<path fill-rule="evenodd" clip-rule="evenodd" d="M3.96699 4.66669H24.0337C24.7763 4.66669 25.4885 4.96169 26.0136 5.48679C26.5387 6.01189 26.8337 6.72408 26.8337 7.46669V20.5334C26.8337 21.276 26.5387 21.9881 26.0136 22.5133C25.4885 23.0384 24.7763 23.3334 24.0337 23.3334H3.96699C3.22439 23.3334 2.5122 23.0384 1.98709 22.5133C1.46199 21.9881 1.16699 21.276 1.16699 20.5334V7.46669C1.16699 6.72408 1.46199 6.01189 1.98709 5.48679C2.5122 4.96169 3.22439 4.66669 3.96699 4.66669ZM4.66699 10.5C4.66699 10.1906 4.78991 9.89386 5.0087 9.67506C5.22749 9.45627 5.52424 9.33335 5.83366 9.33335H11.667C11.9764 9.33335 12.2732 9.45627 12.492 9.67506C12.7107 9.89386 12.8337 10.1906 12.8337 10.5C12.8337 10.8094 12.7107 11.1062 12.492 11.325C12.2732 11.5438 11.9764 11.6667 11.667 11.6667H5.83366C5.52424 11.6667 5.22749 11.5438 5.0087 11.325C4.78991 11.1062 4.66699 10.8094 4.66699 10.5ZM5.83366 12.8334C5.52424 12.8334 5.22749 12.9563 5.0087 13.1751C4.78991 13.3939 4.66699 13.6906 4.66699 14C4.66699 14.3094 4.78991 14.6062 5.0087 14.825C5.22749 15.0438 5.52424 15.1667 5.83366 15.1667H11.667C11.9764 15.1667 12.2732 15.0438 12.492 14.825C12.7107 14.6062 12.8337 14.3094 12.8337 14C12.8337 13.6906 12.7107 13.3939 12.492 13.1751C12.2732 12.9563 11.9764 12.8334 11.667 12.8334H5.83366ZM5.83366 16.3334C5.52424 16.3334 5.22749 16.4563 5.0087 16.6751C4.78991 16.8939 4.66699 17.1906 4.66699 17.5C4.66699 17.8094 4.78991 18.1062 5.0087 18.325C5.22749 18.5438 5.52424 18.6667 5.83366 18.6667H11.667C11.9764 18.6667 12.2732 18.5438 12.492 18.325C12.7107 18.1062 12.8337 17.8094 12.8337 17.5C12.8337 17.1906 12.7107 16.8939 12.492 16.6751C12.2732 16.4563 11.9764 16.3334 11.667 16.3334H5.83366ZM18.3252 17.1582L22.9918 12.4915C23.2043 12.2715 23.3219 11.9768 23.3193 11.6709C23.3166 11.365 23.1939 11.0724 22.9776 10.8561C22.7613 10.6398 22.4687 10.5171 22.1628 10.5144C21.8569 10.5117 21.5622 10.6293 21.3422 10.8419L17.5003 14.6837L15.9918 13.1752C15.7718 12.9627 15.4771 12.8451 15.1712 12.8477C14.8653 12.8504 14.5727 12.9731 14.3564 13.1894C14.1401 13.4057 14.0174 13.6983 14.0147 14.0042C14.012 14.3101 14.1296 14.6048 14.3422 14.8249L16.6755 17.1582C16.8943 17.3769 17.191 17.4998 17.5003 17.4998C17.8097 17.4998 18.1064 17.3769 18.3252 17.1582Z" fill="#EF233C"/>
</svg>
