<svg width="24" height="24" viewBox="0 0 24 24" fill="none" xmlns="http://www.w3.org/2000/svg">
<rect width="24" height="24" fill="white"/>
<path fill-rule="evenodd" clip-rule="evenodd" d="M4.52545 17.5257L5.43059 14.8103H6.56901L7.47414 17.5257L10.1895 18.4309V19.5693L7.47414 20.4744L6.56901 23.1898H5.43059L4.52545 20.4744L1.81006 19.5693V18.4309L4.52545 17.5257Z" fill="#0101F6"/>
<path d="M12.3046 3.00006C12.2424 2.99997 12.1788 3 12.1135 3.00003L12.018 3.00006H12.3046Z" fill="#0101F6"/>
<path d="M11.9998 3.00006L9.7585 3.00006C8.95353 3.00005 8.28917 3.00004 7.74797 3.04426C7.18587 3.09018 6.66917 3.18875 6.18383 3.43604C5.43119 3.81953 4.81926 4.43145 4.43577 5.1841C4.18848 5.66944 4.08991 6.18614 4.04399 6.74824C3.99977 7.28943 3.99978 7.95378 3.9998 8.75875V13.0001H7.49979L8.49979 16.0001L11.9998 17.0001V21.0001H14.2411C15.0461 21.0001 15.7104 21.0001 16.2516 20.9559C16.8137 20.9099 17.3304 20.8114 17.8158 20.5641C18.5684 20.1806 19.1803 19.5687 19.5638 18.816C19.8111 18.3307 19.9097 17.814 19.9556 17.2519C19.9998 16.7107 19.9998 16.0463 19.9998 15.2414V11.0001H12.9998C12.4475 11.0001 11.9998 10.5523 11.9998 10.0001V3.00006Z" fill="#0101F6"/>
<path d="M19.9998 10.9883L19.9998 10.8864C19.9999 10.8206 19.9999 10.7565 19.9998 10.6939V10.9883Z" fill="#0101F6"/>
<path d="M19.8019 9.00006C19.705 8.70365 19.5737 8.41923 19.4104 8.15271C19.1617 7.74699 18.8223 7.40789 18.3731 6.95909L16.0408 4.62679C15.592 4.17756 15.2529 3.83813 14.8471 3.5895C14.5806 3.42618 14.2962 3.29486 13.9998 3.19798V9.00006H19.8019Z" fill="#0101F6"/>
</svg>
