<svg width="25" height="28" viewBox="0 0 25 28" fill="none" xmlns="http://www.w3.org/2000/svg">
<g clip-path="url(#clip0_114_4456)">
<path d="M10.7146 6.99995C10.7146 5.60756 10.1502 4.27221 9.14549 3.28764C8.14084 2.30307 6.77822 1.74995 5.35742 1.74995C3.93662 1.74995 2.57401 2.30307 1.56935 3.28764C0.564691 4.27221 0.000279008 5.60756 0.000279008 6.99995C0.000279008 8.39234 0.564691 9.7277 1.56935 10.7123C2.57401 11.6968 3.93662 12.25 5.35742 12.25C6.77822 12.25 8.14084 11.6968 9.14549 10.7123C10.1502 9.7277 10.7146 8.39234 10.7146 6.99995ZM25.0003 21C25.0003 20.3105 24.8617 19.6278 24.5925 18.9909C24.3233 18.3539 23.9287 17.7751 23.4312 17.2876C22.9338 16.8001 22.3432 16.4134 21.6932 16.1496C21.0433 15.8857 20.3466 15.75 19.6431 15.75C18.9396 15.75 18.243 15.8857 17.5931 16.1496C16.9431 16.4134 16.3525 16.8001 15.8551 17.2876C15.3576 17.7751 14.963 18.3539 14.6938 18.9909C14.4246 19.6278 14.286 20.3105 14.286 21C14.286 21.6894 14.4246 22.3721 14.6938 23.009C14.963 23.646 15.3576 24.2248 15.8551 24.7123C16.3525 25.1998 16.9431 25.5865 17.5931 25.8503C18.243 26.1142 18.9396 26.25 19.6431 26.25C20.3466 26.25 21.0433 26.1142 21.6932 25.8503C22.3432 25.5865 22.9338 25.1998 23.4312 24.7123C23.9287 24.2248 24.3233 23.646 24.5925 23.009C24.8617 22.3721 25.0003 21.6894 25.0003 21ZM24.4757 4.73589C25.1733 4.05229 25.1733 2.94214 24.4757 2.25854C23.7782 1.57495 22.6454 1.57495 21.9478 2.25854L0.519252 23.2585C-0.178292 23.9421 -0.178292 25.0523 0.519252 25.7359C1.2168 26.4195 2.34961 26.4195 3.04715 25.7359L24.4757 4.73589Z" fill="#0101F6"/>
</g>
<defs>
<clipPath id="clip0_114_4456">
<rect width="25" height="28" fill="white"/>
</clipPath>
</defs>
</svg>
