<svg width="48" height="49" viewBox="0 0 48 49" fill="none" xmlns="http://www.w3.org/2000/svg">
<path d="M17.7979 1.57935H32.1719L46.9219 16.843V42.0276C46.9219 45.0061 44.5069 47.4211 41.5283 47.4211H17.7979C14.8193 47.421 12.4053 45.0061 12.4053 42.0276V6.97192C12.4054 3.99348 14.8194 1.57945 17.7979 1.57935Z" fill="#EEF1F7" stroke="#CBD0DC" stroke-width="2.15729"/>
<rect y="21.7095" width="32.3593" height="19.5347" rx="3.77526" fill="#D82042"/>
<path d="M5.3623 36.2211V26.885H8.57794C9.2798 26.885 9.86125 27.0172 10.3223 27.2816C10.7834 27.546 11.1284 27.9077 11.3575 28.3666C11.5865 28.8224 11.7011 29.336 11.7011 29.9074C11.7011 30.4818 11.5851 30.9984 11.3531 31.4573C11.124 31.9132 10.7775 32.2748 10.3135 32.5423C9.85244 32.8067 9.27245 32.9389 8.57353 32.9389H6.36223V31.7445H8.45019C8.89363 31.7445 9.25337 31.6655 9.52941 31.5075C9.80546 31.3464 10.0081 31.1276 10.1373 30.851C10.2665 30.5745 10.3311 30.2599 10.3311 29.9074C10.3311 29.5549 10.2665 29.2418 10.1373 28.9683C10.0081 28.6948 9.80399 28.4805 9.52501 28.3255C9.24896 28.1705 8.88482 28.093 8.43257 28.093H6.72344V36.2211H5.3623Z" fill="white"/>
<path d="M16.2173 36.2211H13.2968V26.885H16.3098C17.1937 26.885 17.9528 27.0719 18.5871 27.4457C19.2215 27.8165 19.7075 28.3499 20.0452 29.0458C20.3858 29.7387 20.5562 30.5699 20.5562 31.5394C20.5562 32.5119 20.3844 33.3476 20.0408 34.0466C19.7001 34.7456 19.2068 35.2835 18.5607 35.6604C17.9146 36.0342 17.1335 36.2211 16.2173 36.2211ZM14.6579 34.9903H16.1424C16.8296 34.9903 17.4007 34.8565 17.8559 34.5891C18.3111 34.3186 18.6517 33.9281 18.8779 33.4175C19.104 32.9039 19.2171 32.2779 19.2171 31.5394C19.2171 30.807 19.104 30.1855 18.8779 29.6749C18.6547 29.1643 18.3214 28.7768 17.8779 28.5124C17.4345 28.248 16.8839 28.1158 16.2261 28.1158H14.6579V34.9903Z" fill="white"/>
<path d="M22.2488 36.2211V26.885H27.8431V28.0976H23.6099V30.9422H27.4422V32.1502H23.6099V36.2211H22.2488Z" fill="white"/>
</svg>
