<svg width="41" height="41" viewBox="0 0 41 41" fill="none" xmlns="http://www.w3.org/2000/svg">
<path d="M27.1668 22V29C27.1668 34.8333 24.8335 37.1667 19.0002 37.1667H12.0002C6.16683 37.1667 3.8335 34.8333 3.8335 29V22C3.8335 16.1667 6.16683 13.8333 12.0002 13.8333H19.0002C24.8335 13.8333 27.1668 16.1667 27.1668 22Z" fill="#1B01A6"/>
<path d="M28.9996 3.83334H21.9996C16.8611 3.83334 14.4512 5.65682 13.9492 10.065C13.8441 10.9872 14.6079 11.75 15.5361 11.75H18.9996C25.9996 11.75 29.2496 15 29.2496 22V25.4635C29.2496 26.3917 30.0124 27.1555 30.9346 27.0504C35.3428 26.5484 37.1663 24.1385 37.1663 19V12C37.1663 6.16667 34.8329 3.83334 28.9996 3.83334Z" fill="#1B01A6"/>
</svg>
