<svg width="40" height="41" viewBox="0 0 40 41" fill="none" xmlns="http://www.w3.org/2000/svg">
<path d="M34.1665 17.4834H29.3498C25.3998 17.4834 22.1832 14.2667 22.1832 10.3167V5.50004C22.1832 4.58337 21.4332 3.83337 20.5165 3.83337H13.4498C8.3165 3.83337 4.1665 7.16671 4.1665 13.1167V27.8834C4.1665 33.8334 8.3165 37.1667 13.4498 37.1667H26.5498C31.6832 37.1667 35.8332 33.8334 35.8332 27.8834V19.15C35.8332 18.2334 35.0832 17.4834 34.1665 17.4834ZM19.2165 23.05C18.9665 23.3 18.6498 23.4167 18.3332 23.4167C18.0165 23.4167 17.6998 23.3 17.4498 23.05L16.2498 21.85V28.8334C16.2498 29.5167 15.6832 30.0834 14.9998 30.0834C14.3165 30.0834 13.7498 29.5167 13.7498 28.8334V21.85L12.5498 23.05C12.0665 23.5334 11.2665 23.5334 10.7832 23.05C10.2998 22.5667 10.2998 21.7667 10.7832 21.2834L14.1165 17.95C14.2332 17.85 14.3498 17.7667 14.4832 17.7C14.5165 17.6834 14.5665 17.6667 14.5998 17.65C14.6998 17.6167 14.7998 17.6 14.9165 17.5834C14.9665 17.5834 14.9998 17.5834 15.0498 17.5834C15.1832 17.5834 15.3165 17.6167 15.4498 17.6667C15.4665 17.6667 15.4665 17.6667 15.4832 17.6667C15.6165 17.7167 15.7498 17.8167 15.8498 17.9167C15.8665 17.9334 15.8832 17.9334 15.8832 17.95L19.2165 21.2834C19.6998 21.7667 19.6998 22.5667 19.2165 23.05Z" fill="#0101F6"/>
<path d="M29.0501 15.1833C30.6335 15.1999 32.8335 15.1999 34.7168 15.1999C35.6668 15.1999 36.1668 14.0833 35.5001 13.4166C33.1001 10.9999 28.8001 6.64995 26.3335 4.18328C25.6501 3.49995 24.4668 3.96661 24.4668 4.91661V10.7333C24.4668 13.1666 26.5335 15.1833 29.0501 15.1833Z" fill="#0101F6"/>
</svg>
