<svg width="32" height="33" viewBox="0 0 32 33" fill="none" xmlns="http://www.w3.org/2000/svg">
<path d="M27.9999 9.47338C27.9732 9.47338 27.9332 9.47338 27.8932 9.47338C20.8399 8.76672 13.7999 8.50005 6.82655 9.20672L4.10655 9.47338C3.54655 9.52672 3.05322 9.12672 2.99989 8.56672C2.94655 8.00672 3.34655 7.52672 3.89322 7.47338L6.61322 7.20672C13.7066 6.48672 20.8932 6.76672 28.0932 7.47338C28.6399 7.52672 29.0399 8.02005 28.9866 8.56672C28.9466 9.08672 28.5066 9.47338 27.9999 9.47338Z" fill="#E43700"/>
<path d="M11.333 8.12675C11.2797 8.12675 11.2264 8.12675 11.1597 8.11341C10.6264 8.02008 10.253 7.50008 10.3464 6.96675L10.6397 5.22008C10.853 3.94008 11.1464 2.16675 14.253 2.16675H17.7464C20.8664 2.16675 21.1597 4.00675 21.3597 5.23341L21.653 6.96675C21.7464 7.51341 21.373 8.03341 20.8397 8.11341C20.293 8.20675 19.773 7.83341 19.693 7.30008L19.3997 5.56675C19.213 4.40675 19.173 4.18008 17.7597 4.18008H14.2664C12.853 4.18008 12.8264 4.36675 12.6264 5.55341L12.3197 7.28675C12.2397 7.78008 11.813 8.12675 11.333 8.12675Z" fill="#E43700"/>
<path d="M20.2802 30.8334H11.7202C7.06686 30.8334 6.88019 28.2601 6.73352 26.1801L5.86686 12.7534C5.82686 12.2068 6.25352 11.7268 6.80019 11.6868C7.36019 11.6601 7.82686 12.0734 7.86686 12.6201L8.73352 26.0468C8.88019 28.0734 8.93352 28.8334 11.7202 28.8334H20.2802C23.0802 28.8334 23.1335 28.0734 23.2669 26.0468L24.1335 12.6201C24.1735 12.0734 24.6535 11.6601 25.2002 11.6868C25.7469 11.7268 26.1735 12.1934 26.1335 12.7534L25.2669 26.1801C25.1202 28.2601 24.9335 30.8334 20.2802 30.8334Z" fill="#E43700"/>
<path d="M18.2134 23.5H13.7734C13.2268 23.5 12.7734 23.0467 12.7734 22.5C12.7734 21.9533 13.2268 21.5 13.7734 21.5H18.2134C18.7601 21.5 19.2134 21.9533 19.2134 22.5C19.2134 23.0467 18.7601 23.5 18.2134 23.5Z" fill="#E43700"/>
<path d="M19.3337 18.1667H12.667C12.1203 18.1667 11.667 17.7134 11.667 17.1667C11.667 16.6201 12.1203 16.1667 12.667 16.1667H19.3337C19.8803 16.1667 20.3337 16.6201 20.3337 17.1667C20.3337 17.7134 19.8803 18.1667 19.3337 18.1667Z" fill="#E43700"/>
</svg>
