<svg width="40" height="40" viewBox="0 0 40 40" fill="none" xmlns="http://www.w3.org/2000/svg">
<path d="M12.4338 32.2339H9.2337C4.3337 31.8839 2.13379 28.1172 2.13379 24.7672C2.13379 21.4172 4.33372 17.6339 9.15039 17.3006C9.83372 17.2339 10.4337 17.7672 10.4837 18.4672C10.5337 19.1505 10.0171 19.7506 9.31712 19.8006C6.08378 20.0339 4.63379 22.4672 4.63379 24.7839C4.63379 27.1005 6.08378 29.5339 9.31712 29.7672H12.4338C13.1171 29.7672 13.6838 30.3339 13.6838 31.0172C13.6838 31.7005 13.1171 32.2339 12.4338 32.2339Z" fill="#0101F6"/>
<path d="M27.783 32.234C27.7497 32.234 27.733 32.234 27.6997 32.234C27.0164 32.234 26.3831 31.6673 26.3831 30.984C26.3831 30.2673 26.9164 29.734 27.6164 29.734C29.6664 29.734 31.4997 29.0173 32.933 27.734C35.533 25.4673 35.6997 22.2007 34.9997 19.9007C34.2997 17.6173 32.3497 15.0007 28.9497 14.584C28.3997 14.5173 27.9663 14.1007 27.8663 13.5507C27.1996 9.55066 25.0497 6.78399 21.783 5.78399C18.4164 4.73399 14.483 5.76732 12.033 8.33399C9.64965 10.8173 9.09966 14.3007 10.483 18.134C10.7163 18.784 10.3831 19.5006 9.73307 19.734C9.08307 19.9673 8.36637 19.634 8.13304 18.984C6.4497 14.284 7.21639 9.78399 10.2331 6.61732C13.3164 3.38399 18.2664 2.10064 22.5164 3.40064C26.4164 4.60064 29.1663 7.81731 30.1663 12.284C33.5663 13.0506 36.2997 15.634 37.383 19.2007C38.5663 23.084 37.4997 27.084 34.583 29.6173C32.733 31.284 30.3163 32.234 27.783 32.234Z" fill="#0101F6"/>
<path d="M19.9998 37.1335C16.6498 37.1335 13.5165 35.3501 11.7999 32.4668C11.6165 32.1835 11.4332 31.8501 11.2832 31.4835C10.7165 30.3001 10.4165 28.9501 10.4165 27.5501C10.4165 22.2668 14.7165 17.9668 19.9998 17.9668C25.2832 17.9668 29.5832 22.2668 29.5832 27.5501C29.5832 28.9668 29.2832 30.3001 28.6832 31.5335C28.5499 31.8501 28.3665 32.1835 28.1665 32.5001C26.4832 35.3501 23.3498 37.1335 19.9998 37.1335ZM19.9998 20.4668C16.0998 20.4668 12.9165 23.6501 12.9165 27.5501C12.9165 28.5835 13.1332 29.5501 13.5498 30.4335C13.6832 30.7168 13.7998 30.9501 13.9331 31.1668C15.1998 33.3168 17.5165 34.6335 19.9832 34.6335C22.4498 34.6335 24.7665 33.3168 26.0165 31.2001C26.1665 30.9501 26.2999 30.7168 26.3999 30.4835C26.8499 29.5668 27.0665 28.6001 27.0665 27.5668C27.0832 23.6501 23.8998 20.4668 19.9998 20.4668Z" fill="#0101F6"/>
<path d="M19.0497 30.4506C18.733 30.4506 18.4164 30.3339 18.1664 30.0839L16.5163 28.4339C16.033 27.9505 16.033 27.1506 16.5163 26.6672C16.9996 26.1839 17.7996 26.1839 18.283 26.6672L19.083 27.4672L21.7497 25.0006C22.2663 24.5339 23.0497 24.5672 23.5163 25.0672C23.983 25.5672 23.9497 26.3672 23.4497 26.8339L19.8997 30.1172C19.6497 30.3339 19.3497 30.4506 19.0497 30.4506Z" fill="#0101F6"/>
</svg>
